<mxfile host="app.diagrams.net" agent="Mozilla/5.0 (X11; Ubuntu; Linux x86_64; rv:135.0) Gecko/20100101 Firefox/135.0" version="26.0.14" pages="3">
  <diagram id="mfyG8a96DU1D5726OxV5" name="containers">
    <mxGraphModel dx="1360" dy="765" grid="1" gridSize="10" guides="1" tooltips="1" connect="1" arrows="1" fold="1" page="1" pageScale="1" pageWidth="827" pageHeight="1169" math="0" shadow="0">
      <root>
        <mxCell id="0" />
        <mxCell id="1" parent="0" />
        <mxCell id="7" value="" style="rounded=1;whiteSpace=wrap;html=1;fillColor=#FFFFFF;strokeColor=#36393d;arcSize=8;" parent="1" vertex="1">
          <mxGeometry x="60" y="30" width="670" height="850" as="geometry" />
        </mxCell>
        <mxCell id="6" value="" style="shape=image;verticalLabelPosition=bottom;labelBackgroundColor=default;verticalAlign=top;aspect=fixed;imageAspect=0;image=https://media2.dev.to/dynamic/image/width=1000,height=500,fit=cover,gravity=auto,format=auto/https%3A%2F%2Fdev-to-uploads.s3.amazonaws.com%2Fuploads%2Farticles%2F6ey8mizke6etkvdathio.png;clipPath=inset(0% 21.67% 3.33% 39.67%);" parent="1" vertex="1">
          <mxGeometry x="90" y="50" width="208" height="260" as="geometry" />
        </mxCell>
        <mxCell id="10" value="" style="shape=image;verticalLabelPosition=bottom;labelBackgroundColor=default;verticalAlign=top;aspect=fixed;imageAspect=0;image=https://cdn-icons-png.flaticon.com/512/5969/5969124.png;" parent="1" vertex="1">
          <mxGeometry x="640" width="150" height="150" as="geometry" />
        </mxCell>
        <mxCell id="11" value="&lt;font style=&quot;font-size: 36px;&quot;&gt;&lt;b style=&quot;font-size: 36px;&quot;&gt;Docker Compose&lt;/b&gt;&lt;/font&gt;" style="text;html=1;strokeColor=none;fillColor=none;align=center;verticalAlign=middle;whiteSpace=wrap;rounded=0;fontFamily=Roboto Slab;fontSource=https%3A%2F%2Ffonts.googleapis.com%2Fcss%3Ffamily%3DRoboto%2BSlab;fontSize=36;fontColor=#004487;" parent="1" vertex="1">
          <mxGeometry x="320" y="150" width="300" height="30" as="geometry" />
        </mxCell>
        <mxCell id="13" value="" style="rounded=1;whiteSpace=wrap;html=1;fontSize=36;fillColor=#dae8fc;strokeColor=#6c8ebf;" parent="1" vertex="1">
          <mxGeometry x="330" y="230" width="280" height="110" as="geometry" />
        </mxCell>
        <mxCell id="14" value="" style="rounded=1;whiteSpace=wrap;html=1;fontSize=36;fillColor=#dae8fc;strokeColor=#6c8ebf;" parent="1" vertex="1">
          <mxGeometry x="330" y="390" width="280" height="110" as="geometry" />
        </mxCell>
        <mxCell id="15" value="" style="rounded=1;whiteSpace=wrap;html=1;fontSize=36;fillColor=#dae8fc;strokeColor=#6c8ebf;" parent="1" vertex="1">
          <mxGeometry x="330" y="560" width="280" height="110" as="geometry" />
        </mxCell>
        <mxCell id="16" value="" style="rounded=1;whiteSpace=wrap;html=1;fontSize=36;fillColor=#dae8fc;strokeColor=#6c8ebf;" parent="1" vertex="1">
          <mxGeometry x="330" y="720" width="280" height="110" as="geometry" />
        </mxCell>
        <mxCell id="17" value="&lt;font style=&quot;font-size: 20px;&quot;&gt;&lt;b style=&quot;font-size: 20px;&quot;&gt;Container app&lt;/b&gt;&lt;/font&gt;" style="text;html=1;strokeColor=none;fillColor=none;align=center;verticalAlign=middle;whiteSpace=wrap;rounded=0;fontFamily=Roboto Slab;fontSource=https%3A%2F%2Ffonts.googleapis.com%2Fcss%3Ffamily%3DRoboto%2BSlab;fontSize=20;fontColor=#004487;" parent="1" vertex="1">
          <mxGeometry x="264" y="240" width="300" height="30" as="geometry" />
        </mxCell>
        <mxCell id="19" value="&lt;font style=&quot;font-size: 20px;&quot;&gt;&lt;b style=&quot;font-size: 20px;&quot;&gt;Container api&lt;/b&gt;&lt;/font&gt;" style="text;html=1;strokeColor=none;fillColor=none;align=center;verticalAlign=middle;whiteSpace=wrap;rounded=0;fontFamily=Roboto Slab;fontSource=https%3A%2F%2Ffonts.googleapis.com%2Fcss%3Ffamily%3DRoboto%2BSlab;fontSize=20;fontColor=#004487;" parent="1" vertex="1">
          <mxGeometry x="264" y="400" width="300" height="30" as="geometry" />
        </mxCell>
        <mxCell id="20" value="&lt;font style=&quot;font-size: 20px;&quot;&gt;&lt;b style=&quot;font-size: 20px;&quot;&gt;Container mongo&lt;/b&gt;&lt;/font&gt;" style="text;html=1;strokeColor=none;fillColor=none;align=center;verticalAlign=middle;whiteSpace=wrap;rounded=0;fontFamily=Roboto Slab;fontSource=https%3A%2F%2Ffonts.googleapis.com%2Fcss%3Ffamily%3DRoboto%2BSlab;fontSize=20;fontColor=#004487;" parent="1" vertex="1">
          <mxGeometry x="280" y="570" width="300" height="30" as="geometry" />
        </mxCell>
        <mxCell id="21" value="&lt;font style=&quot;font-size: 20px;&quot;&gt;&lt;b style=&quot;font-size: 20px;&quot;&gt;Container mongo-ui&lt;/b&gt;&lt;/font&gt;" style="text;html=1;strokeColor=none;fillColor=none;align=center;verticalAlign=middle;whiteSpace=wrap;rounded=0;fontFamily=Roboto Slab;fontSource=https%3A%2F%2Ffonts.googleapis.com%2Fcss%3Ffamily%3DRoboto%2BSlab;fontSize=20;fontColor=#004487;" parent="1" vertex="1">
          <mxGeometry x="298" y="730" width="300" height="30" as="geometry" />
        </mxCell>
        <mxCell id="23" value="" style="shape=image;verticalLabelPosition=bottom;labelBackgroundColor=default;verticalAlign=top;aspect=fixed;imageAspect=0;image=https://streamlit.io/images/brand/streamlit-logo-secondary-colormark-lighttext.png;clipPath=inset(11.93% 33.67% 46.59% 33%);" parent="1" vertex="1">
          <mxGeometry x="558.36" y="200" width="81.64" height="59.6" as="geometry" />
        </mxCell>
        <mxCell id="24" value="" style="shape=image;verticalLabelPosition=bottom;labelBackgroundColor=default;verticalAlign=top;aspect=fixed;imageAspect=0;image=https://cdn.worldvectorlogo.com/logos/fastapi.svg;" parent="1" vertex="1">
          <mxGeometry x="569.1800000000001" y="370" width="60" height="60" as="geometry" />
        </mxCell>
        <mxCell id="30" value="" style="shape=image;verticalLabelPosition=bottom;labelBackgroundColor=default;verticalAlign=top;aspect=fixed;imageAspect=0;image=https://img.icons8.com/color/512/mongodb.png;" parent="1" vertex="1">
          <mxGeometry x="564" y="540" width="72" height="72" as="geometry" />
        </mxCell>
        <mxCell id="31" value="" style="shape=image;verticalLabelPosition=bottom;labelBackgroundColor=default;verticalAlign=top;aspect=fixed;imageAspect=0;image=https://img.icons8.com/color/512/mongodb.png;" parent="1" vertex="1">
          <mxGeometry x="563.18" y="700" width="72" height="72" as="geometry" />
        </mxCell>
        <mxCell id="33" value="&lt;font color=&quot;#000000&quot; style=&quot;font-size: 15px;&quot;&gt;&lt;b style=&quot;font-size: 15px;&quot;&gt;Roda aplicação web que faz interface com o usuário.&lt;/b&gt;&lt;/font&gt;" style="text;html=1;strokeColor=none;fillColor=none;align=center;verticalAlign=middle;whiteSpace=wrap;rounded=0;fontFamily=Roboto Slab;fontSource=https%3A%2F%2Ffonts.googleapis.com%2Fcss%3Ffamily%3DRoboto%2BSlab;fontSize=15;fontColor=#004487;" parent="1" vertex="1">
          <mxGeometry x="350" y="290" width="240" height="30" as="geometry" />
        </mxCell>
        <mxCell id="34" value="&lt;font color=&quot;#000000&quot; style=&quot;font-size: 15px;&quot;&gt;&lt;b style=&quot;font-size: 15px;&quot;&gt;API que ingesta os dados no mongo e gera as recomendações baseada no modelo.&lt;/b&gt;&lt;/font&gt;" style="text;html=1;strokeColor=none;fillColor=none;align=center;verticalAlign=middle;whiteSpace=wrap;rounded=0;fontFamily=Roboto Slab;fontSource=https%3A%2F%2Ffonts.googleapis.com%2Fcss%3Ffamily%3DRoboto%2BSlab;fontSize=15;fontColor=#004487;" parent="1" vertex="1">
          <mxGeometry x="345" y="450" width="250" height="30" as="geometry" />
        </mxCell>
        <mxCell id="35" value="&lt;font color=&quot;#000000&quot; style=&quot;font-size: 15px;&quot;&gt;&lt;b style=&quot;font-size: 15px;&quot;&gt;Banco de dados que guarda as informações das notícias.&lt;/b&gt;&lt;/font&gt;" style="text;html=1;strokeColor=none;fillColor=none;align=center;verticalAlign=middle;whiteSpace=wrap;rounded=0;fontFamily=Roboto Slab;fontSource=https%3A%2F%2Ffonts.googleapis.com%2Fcss%3Ffamily%3DRoboto%2BSlab;fontSize=15;fontColor=#004487;" parent="1" vertex="1">
          <mxGeometry x="350" y="620" width="240" height="30" as="geometry" />
        </mxCell>
        <mxCell id="36" value="&lt;font color=&quot;#000000&quot; style=&quot;font-size: 15px;&quot;&gt;&lt;b style=&quot;font-size: 15px;&quot;&gt;Interface gráfica do banco, para consultas.&lt;/b&gt;&lt;/font&gt;" style="text;html=1;strokeColor=none;fillColor=none;align=center;verticalAlign=middle;whiteSpace=wrap;rounded=0;fontFamily=Roboto Slab;fontSource=https%3A%2F%2Ffonts.googleapis.com%2Fcss%3Ffamily%3DRoboto%2BSlab;fontSize=15;fontColor=#004487;" parent="1" vertex="1">
          <mxGeometry x="350" y="780" width="240" height="30" as="geometry" />
        </mxCell>
      </root>
    </mxGraphModel>
  </diagram>
  <diagram id="VmCeNL-hDI-RfSfwbeI3" name="arquitetura">
    <mxGraphModel dx="777" dy="437" grid="1" gridSize="10" guides="1" tooltips="1" connect="1" arrows="1" fold="1" page="1" pageScale="1" pageWidth="827" pageHeight="1169" math="0" shadow="0">
      <root>
        <mxCell id="0" />
        <mxCell id="1" parent="0" />
        <mxCell id="q2OS-33zKVe1yGkHf3zO-1" value="" style="rounded=1;whiteSpace=wrap;html=1;strokeColor=none;arcSize=10;" parent="1" vertex="1">
          <mxGeometry x="110" y="60" width="750" height="280" as="geometry" />
        </mxCell>
        <mxCell id="RvLRU4nskbkqkkRxh--S-11" style="edgeStyle=orthogonalEdgeStyle;rounded=0;orthogonalLoop=1;jettySize=auto;html=1;exitX=1;exitY=0.5;exitDx=0;exitDy=0;" edge="1" parent="1" source="q2OS-33zKVe1yGkHf3zO-3" target="q2OS-33zKVe1yGkHf3zO-11">
          <mxGeometry relative="1" as="geometry" />
        </mxCell>
        <mxCell id="RvLRU4nskbkqkkRxh--S-12" value="hash notícia" style="edgeLabel;html=1;align=center;verticalAlign=middle;resizable=0;points=[];" vertex="1" connectable="0" parent="RvLRU4nskbkqkkRxh--S-11">
          <mxGeometry x="-0.4536" y="-1" relative="1" as="geometry">
            <mxPoint x="26" y="-1" as="offset" />
          </mxGeometry>
        </mxCell>
        <mxCell id="DzNDHhGczwYWZFNVgzF8-4" style="edgeStyle=orthogonalEdgeStyle;rounded=0;orthogonalLoop=1;jettySize=auto;html=1;exitX=0.5;exitY=0;exitDx=0;exitDy=0;" edge="1" parent="1" source="q2OS-33zKVe1yGkHf3zO-3" target="DzNDHhGczwYWZFNVgzF8-3">
          <mxGeometry relative="1" as="geometry" />
        </mxCell>
        <mxCell id="q2OS-33zKVe1yGkHf3zO-3" value="&lt;font data-font-src=&quot;https://fonts.googleapis.com/css?family=Roboto+Slab&quot; face=&quot;Roboto Slab&quot; color=&quot;#000000&quot;&gt;&lt;b&gt;API&lt;/b&gt;&lt;/font&gt;" style="rounded=1;whiteSpace=wrap;html=1;fillColor=#d5e8d4;strokeColor=#82b366;" parent="1" vertex="1">
          <mxGeometry x="560" y="160" width="90" height="60" as="geometry" />
        </mxCell>
        <mxCell id="RvLRU4nskbkqkkRxh--S-9" style="edgeStyle=orthogonalEdgeStyle;rounded=0;orthogonalLoop=1;jettySize=auto;html=1;exitX=1;exitY=0.5;exitDx=0;exitDy=0;" edge="1" parent="1" source="q2OS-33zKVe1yGkHf3zO-8" target="q2OS-33zKVe1yGkHf3zO-3">
          <mxGeometry relative="1" as="geometry" />
        </mxCell>
        <mxCell id="RvLRU4nskbkqkkRxh--S-10" value="/recommendation" style="edgeLabel;html=1;align=center;verticalAlign=middle;resizable=0;points=[];" vertex="1" connectable="0" parent="RvLRU4nskbkqkkRxh--S-9">
          <mxGeometry x="-0.1321" relative="1" as="geometry">
            <mxPoint x="7" as="offset" />
          </mxGeometry>
        </mxCell>
        <mxCell id="q2OS-33zKVe1yGkHf3zO-8" value="&lt;font data-font-src=&quot;https://fonts.googleapis.com/css?family=Roboto+Slab&quot; face=&quot;Roboto Slab&quot;&gt;&lt;b&gt;UI&lt;/b&gt;&lt;/font&gt;" style="rounded=1;whiteSpace=wrap;html=1;fillColor=#f8cecc;strokeColor=#b85450;" parent="1" vertex="1">
          <mxGeometry x="312.12" y="160" width="90" height="60" as="geometry" />
        </mxCell>
        <mxCell id="RvLRU4nskbkqkkRxh--S-13" style="edgeStyle=orthogonalEdgeStyle;rounded=0;orthogonalLoop=1;jettySize=auto;html=1;exitX=0.026;exitY=0.278;exitDx=0;exitDy=0;exitPerimeter=0;entryX=1;entryY=0.25;entryDx=0;entryDy=0;" edge="1" parent="1" source="q2OS-33zKVe1yGkHf3zO-11" target="q2OS-33zKVe1yGkHf3zO-3">
          <mxGeometry relative="1" as="geometry" />
        </mxCell>
        <mxCell id="RvLRU4nskbkqkkRxh--S-14" value="título notícia" style="edgeLabel;html=1;align=center;verticalAlign=middle;resizable=0;points=[];" vertex="1" connectable="0" parent="RvLRU4nskbkqkkRxh--S-13">
          <mxGeometry x="0.3448" y="1" relative="1" as="geometry">
            <mxPoint x="16" as="offset" />
          </mxGeometry>
        </mxCell>
        <mxCell id="q2OS-33zKVe1yGkHf3zO-11" value="&lt;font data-font-src=&quot;https://fonts.googleapis.com/css?family=Roboto+Slab&quot; face=&quot;Roboto Slab&quot; color=&quot;#000000&quot;&gt;&lt;b&gt;MongoDB&lt;/b&gt;&lt;/font&gt;" style="shape=cylinder3;whiteSpace=wrap;html=1;boundedLbl=1;backgroundOutline=1;size=15;fillColor=#dae8fc;strokeColor=#6c8ebf;" parent="1" vertex="1">
          <mxGeometry x="781" y="155.6" width="60" height="70" as="geometry" />
        </mxCell>
        <mxCell id="RvLRU4nskbkqkkRxh--S-3" style="edgeStyle=orthogonalEdgeStyle;rounded=0;orthogonalLoop=1;jettySize=auto;html=1;" edge="1" parent="1" source="PRLoo9w_TC8WbXoKqoRn-1" target="q2OS-33zKVe1yGkHf3zO-8">
          <mxGeometry relative="1" as="geometry" />
        </mxCell>
        <mxCell id="RvLRU4nskbkqkkRxh--S-5" value="hash usuário" style="edgeLabel;html=1;align=center;verticalAlign=middle;resizable=0;points=[];" vertex="1" connectable="0" parent="RvLRU4nskbkqkkRxh--S-3">
          <mxGeometry x="-0.5464" y="-2" relative="1" as="geometry">
            <mxPoint x="35" as="offset" />
          </mxGeometry>
        </mxCell>
        <mxCell id="PRLoo9w_TC8WbXoKqoRn-1" value="&lt;font data-font-src=&quot;https://fonts.googleapis.com/css?family=Roboto+Slab&quot; face=&quot;Roboto Slab&quot;&gt;&lt;b&gt;Usuário&lt;/b&gt;&lt;/font&gt;" style="sketch=0;outlineConnect=0;fontColor=#232F3E;gradientColor=none;strokeColor=#232F3E;fillColor=#ffffff;dashed=0;verticalLabelPosition=bottom;verticalAlign=top;align=center;html=1;fontSize=12;fontStyle=0;aspect=fixed;shape=mxgraph.aws4.resourceIcon;resIcon=mxgraph.aws4.user;" vertex="1" parent="1">
          <mxGeometry x="115" y="160" width="60" height="60" as="geometry" />
        </mxCell>
        <mxCell id="RvLRU4nskbkqkkRxh--S-1" value="" style="shape=image;verticalLabelPosition=bottom;labelBackgroundColor=default;verticalAlign=top;aspect=fixed;imageAspect=0;image=https://streamlit.io/images/brand/streamlit-logo-secondary-colormark-lighttext.png;clipPath=inset(11.93% 33.67% 46.59% 33%);" vertex="1" parent="1">
          <mxGeometry x="330" y="140" width="54.24" height="39.6" as="geometry" />
        </mxCell>
        <mxCell id="RvLRU4nskbkqkkRxh--S-7" value="" style="endArrow=classic;html=1;rounded=0;exitX=0;exitY=0.25;exitDx=0;exitDy=0;entryX=1;entryY=0.252;entryDx=0;entryDy=0;entryPerimeter=0;" edge="1" parent="1" source="q2OS-33zKVe1yGkHf3zO-8" target="PRLoo9w_TC8WbXoKqoRn-1">
          <mxGeometry width="50" height="50" relative="1" as="geometry">
            <mxPoint x="300" y="158" as="sourcePoint" />
            <mxPoint x="190" y="169.78571428571433" as="targetPoint" />
          </mxGeometry>
        </mxCell>
        <mxCell id="RvLRU4nskbkqkkRxh--S-8" value="recomendação" style="edgeLabel;html=1;align=center;verticalAlign=middle;resizable=0;points=[];" vertex="1" connectable="0" parent="RvLRU4nskbkqkkRxh--S-7">
          <mxGeometry x="0.1393" y="-1" relative="1" as="geometry">
            <mxPoint x="7" as="offset" />
          </mxGeometry>
        </mxCell>
        <mxCell id="RvLRU4nskbkqkkRxh--S-15" style="edgeStyle=orthogonalEdgeStyle;rounded=0;orthogonalLoop=1;jettySize=auto;html=1;exitX=0;exitY=0.25;exitDx=0;exitDy=0;entryX=1;entryY=0.25;entryDx=0;entryDy=0;" edge="1" parent="1" source="q2OS-33zKVe1yGkHf3zO-3" target="q2OS-33zKVe1yGkHf3zO-8">
          <mxGeometry relative="1" as="geometry" />
        </mxCell>
        <mxCell id="RvLRU4nskbkqkkRxh--S-16" value="recomendações" style="edgeLabel;html=1;align=center;verticalAlign=middle;resizable=0;points=[];" vertex="1" connectable="0" parent="RvLRU4nskbkqkkRxh--S-15">
          <mxGeometry x="0.0711" relative="1" as="geometry">
            <mxPoint as="offset" />
          </mxGeometry>
        </mxCell>
        <mxCell id="RvLRU4nskbkqkkRxh--S-18" value="&lt;font data-font-src=&quot;https://fonts.googleapis.com/css?family=Roboto+Slab&quot; face=&quot;Roboto Slab&quot;&gt;01&lt;/font&gt; " style="text;html=1;align=center;verticalAlign=middle;whiteSpace=wrap;rounded=0;labelBackgroundColor=#A680B8;" vertex="1" parent="1">
          <mxGeometry x="156" y="177.6" width="60" height="30" as="geometry" />
        </mxCell>
        <mxCell id="RvLRU4nskbkqkkRxh--S-20" value="&lt;font data-font-src=&quot;https://fonts.googleapis.com/css?family=Roboto+Slab&quot; face=&quot;Roboto Slab&quot;&gt;02&lt;/font&gt; " style="text;html=1;align=center;verticalAlign=middle;whiteSpace=wrap;rounded=0;labelBackgroundColor=#A680B8;" vertex="1" parent="1">
          <mxGeometry x="387" y="177.6" width="60" height="30" as="geometry" />
        </mxCell>
        <mxCell id="RvLRU4nskbkqkkRxh--S-23" value="&lt;font data-font-src=&quot;https://fonts.googleapis.com/css?family=Roboto+Slab&quot; face=&quot;Roboto Slab&quot;&gt;03&lt;/font&gt; " style="text;html=1;align=center;verticalAlign=middle;whiteSpace=wrap;rounded=0;labelBackgroundColor=#A680B8;" vertex="1" parent="1">
          <mxGeometry x="634" y="177.6" width="60" height="30" as="geometry" />
        </mxCell>
        <mxCell id="RvLRU4nskbkqkkRxh--S-24" value="&lt;font face=&quot;Roboto Slab&quot;&gt;04&lt;/font&gt;" style="text;html=1;align=center;verticalAlign=middle;whiteSpace=wrap;rounded=0;labelBackgroundColor=#A680B8;" vertex="1" parent="1">
          <mxGeometry x="730" y="157.8" width="60" height="30" as="geometry" />
        </mxCell>
        <mxCell id="RvLRU4nskbkqkkRxh--S-27" value="&lt;div&gt;&lt;font face=&quot;Roboto Slab&quot;&gt;05&lt;/font&gt;&lt;/div&gt;" style="text;html=1;align=center;verticalAlign=middle;whiteSpace=wrap;rounded=0;labelBackgroundColor=#A680B8;" vertex="1" parent="1">
          <mxGeometry x="511" y="158.6" width="60" height="30" as="geometry" />
        </mxCell>
        <mxCell id="RvLRU4nskbkqkkRxh--S-28" value="06" style="text;html=1;align=center;verticalAlign=middle;whiteSpace=wrap;rounded=0;labelBackgroundColor=#A680B8;" vertex="1" parent="1">
          <mxGeometry x="267" y="157.79999999999998" width="60" height="30" as="geometry" />
        </mxCell>
        <mxCell id="DzNDHhGczwYWZFNVgzF8-3" value="&lt;font data-font-src=&quot;https://fonts.googleapis.com/css?family=Roboto+Slab&quot; face=&quot;Roboto Slab&quot;&gt;&lt;b&gt;artefatos modelo&lt;/b&gt;&lt;/font&gt;" style="shape=process;whiteSpace=wrap;html=1;backgroundOutline=1;fillColor=#f8cecc;strokeColor=#b85450;" vertex="1" parent="1">
          <mxGeometry x="565" y="90" width="80" height="40" as="geometry" />
        </mxCell>
        <mxCell id="DzNDHhGczwYWZFNVgzF8-7" style="edgeStyle=orthogonalEdgeStyle;rounded=0;orthogonalLoop=1;jettySize=auto;html=1;" edge="1" parent="1" source="DzNDHhGczwYWZFNVgzF8-6" target="q2OS-33zKVe1yGkHf3zO-3">
          <mxGeometry relative="1" as="geometry" />
        </mxCell>
        <mxCell id="DzNDHhGczwYWZFNVgzF8-8" value="&lt;div style=&quot;color: rgb(204, 204, 204); background-color: rgb(31, 31, 31); font-family: &amp;quot;Droid Sans Mono&amp;quot;, &amp;quot;monospace&amp;quot;, monospace; font-weight: normal; font-size: 14px; line-height: 19px; white-space: pre;&quot;&gt;&lt;div&gt;&lt;br&gt;&lt;/div&gt;&lt;/div&gt;" style="edgeLabel;html=1;align=center;verticalAlign=middle;resizable=0;points=[];" vertex="1" connectable="0" parent="DzNDHhGczwYWZFNVgzF8-7">
          <mxGeometry x="0.1571" y="1" relative="1" as="geometry">
            <mxPoint as="offset" />
          </mxGeometry>
        </mxCell>
        <mxCell id="DzNDHhGczwYWZFNVgzF8-9" value="/post_data_into_db" style="edgeLabel;html=1;align=center;verticalAlign=middle;resizable=0;points=[];" vertex="1" connectable="0" parent="DzNDHhGczwYWZFNVgzF8-7">
          <mxGeometry x="0.0238" relative="1" as="geometry">
            <mxPoint y="13" as="offset" />
          </mxGeometry>
        </mxCell>
        <mxCell id="DzNDHhGczwYWZFNVgzF8-6" value="&lt;font face=&quot;Roboto Slab&quot;&gt;&lt;b&gt;noticias.csv&lt;/b&gt;&lt;/font&gt;" style="shape=process;whiteSpace=wrap;html=1;backgroundOutline=1;fillColor=#fff2cc;strokeColor=#d6b656;" vertex="1" parent="1">
          <mxGeometry x="552" y="270" width="106" height="30" as="geometry" />
        </mxCell>
        <mxCell id="DzNDHhGczwYWZFNVgzF8-13" style="edgeStyle=orthogonalEdgeStyle;rounded=0;orthogonalLoop=1;jettySize=auto;html=1;exitX=0.75;exitY=1;exitDx=0;exitDy=0;entryX=0.5;entryY=1;entryDx=0;entryDy=0;entryPerimeter=0;" edge="1" parent="1" source="q2OS-33zKVe1yGkHf3zO-3" target="q2OS-33zKVe1yGkHf3zO-11">
          <mxGeometry relative="1" as="geometry">
            <Array as="points">
              <mxPoint x="628" y="240" />
              <mxPoint x="811" y="240" />
            </Array>
          </mxGeometry>
        </mxCell>
        <mxCell id="DzNDHhGczwYWZFNVgzF8-14" value="insere dados no banco" style="edgeLabel;html=1;align=center;verticalAlign=middle;resizable=0;points=[];" vertex="1" connectable="0" parent="DzNDHhGczwYWZFNVgzF8-13">
          <mxGeometry x="0.0222" y="1" relative="1" as="geometry">
            <mxPoint as="offset" />
          </mxGeometry>
        </mxCell>
      </root>
    </mxGraphModel>
  </diagram>
  <diagram id="LYeK636v8L_SNPtwuKWN" name="deploy">
    <mxGraphModel dx="938" dy="528" grid="1" gridSize="10" guides="1" tooltips="1" connect="1" arrows="1" fold="1" page="1" pageScale="1" pageWidth="827" pageHeight="1169" math="0" shadow="0">
      <root>
        <mxCell id="0" />
        <mxCell id="1" parent="0" />
        <mxCell id="nZphPqPUT1hMkBvUyDz9-11" value="" style="rounded=0;whiteSpace=wrap;html=1;fillColor=#f5f5f5;strokeColor=none;fontColor=#333333;" vertex="1" parent="1">
          <mxGeometry x="160" y="200" width="640" height="250" as="geometry" />
        </mxCell>
        <mxCell id="nZphPqPUT1hMkBvUyDz9-1" value="" style="rounded=0;whiteSpace=wrap;html=1;fillColor=#fff2cc;strokeColor=none;" vertex="1" parent="1">
          <mxGeometry x="160" y="140" width="640" height="60" as="geometry" />
        </mxCell>
        <mxCell id="nZphPqPUT1hMkBvUyDz9-2" value="Git flow" style="text;html=1;align=center;verticalAlign=middle;whiteSpace=wrap;rounded=0;fontFamily=Roboto Slab;fontSource=https%3A%2F%2Ffonts.googleapis.com%2Fcss%3Ffamily%3DRoboto%2BSlab;fontStyle=1;fontColor=#FFB366;fontSize=15;" vertex="1" parent="1">
          <mxGeometry x="172" y="158.5" width="60" height="30" as="geometry" />
        </mxCell>
        <mxCell id="nZphPqPUT1hMkBvUyDz9-9" style="edgeStyle=orthogonalEdgeStyle;rounded=0;orthogonalLoop=1;jettySize=auto;html=1;exitX=1;exitY=0.5;exitDx=0;exitDy=0;entryX=0;entryY=0.5;entryDx=0;entryDy=0;" edge="1" parent="1" source="nZphPqPUT1hMkBvUyDz9-4" target="nZphPqPUT1hMkBvUyDz9-30">
          <mxGeometry relative="1" as="geometry">
            <mxPoint x="430" y="320" as="targetPoint" />
            <Array as="points">
              <mxPoint x="440" y="170" />
            </Array>
          </mxGeometry>
        </mxCell>
        <mxCell id="nZphPqPUT1hMkBvUyDz9-10" value="Pull Request" style="edgeLabel;html=1;align=center;verticalAlign=middle;resizable=0;points=[];" vertex="1" connectable="0" parent="nZphPqPUT1hMkBvUyDz9-9">
          <mxGeometry x="-0.2" y="-1" relative="1" as="geometry">
            <mxPoint x="2" y="-1" as="offset" />
          </mxGeometry>
        </mxCell>
        <mxCell id="nZphPqPUT1hMkBvUyDz9-4" value="&amp;nbsp; &lt;font style=&quot;color: rgb(51, 51, 255);&quot; data-font-src=&quot;https://fonts.googleapis.com/css?family=Roboto+Slab&quot; face=&quot;Roboto Slab&quot;&gt;&lt;b&gt;dev&lt;/b&gt;&lt;/font&gt;" style="rounded=1;whiteSpace=wrap;html=1;fillColor=#dae8fc;strokeColor=#6c8ebf;" vertex="1" parent="1">
          <mxGeometry x="270" y="155" width="70" height="30" as="geometry" />
        </mxCell>
        <mxCell id="nZphPqPUT1hMkBvUyDz9-6" value="" style="shape=image;verticalLabelPosition=bottom;labelBackgroundColor=default;verticalAlign=top;aspect=fixed;imageAspect=0;image=https://www.svgrepo.com/show/327279/git-branch.svg;" vertex="1" parent="1">
          <mxGeometry x="270" y="158" width="25" height="25" as="geometry" />
        </mxCell>
        <mxCell id="nZphPqPUT1hMkBvUyDz9-40" style="edgeStyle=orthogonalEdgeStyle;rounded=0;orthogonalLoop=1;jettySize=auto;html=1;exitX=0.5;exitY=1;exitDx=0;exitDy=0;entryX=0.5;entryY=0;entryDx=0;entryDy=0;dashed=1;" edge="1" parent="1" source="nZphPqPUT1hMkBvUyDz9-7" target="nZphPqPUT1hMkBvUyDz9-13">
          <mxGeometry relative="1" as="geometry" />
        </mxCell>
        <mxCell id="nZphPqPUT1hMkBvUyDz9-41" value="&lt;font style=&quot;color: rgb(76, 0, 153);&quot; data-font-src=&quot;https://fonts.googleapis.com/css?family=Roboto+Slab&quot; face=&quot;Roboto Slab&quot;&gt;&lt;b&gt;CD pipeline&lt;/b&gt;&lt;/font&gt;" style="edgeLabel;html=1;align=center;verticalAlign=middle;resizable=0;points=[];" vertex="1" connectable="0" parent="nZphPqPUT1hMkBvUyDz9-40">
          <mxGeometry x="-0.1549" relative="1" as="geometry">
            <mxPoint y="7" as="offset" />
          </mxGeometry>
        </mxCell>
        <mxCell id="nZphPqPUT1hMkBvUyDz9-42" value="&lt;div align=&quot;right&quot;&gt;&lt;br&gt;&lt;/div&gt;" style="edgeLabel;html=1;align=center;verticalAlign=middle;resizable=0;points=[];" vertex="1" connectable="0" parent="nZphPqPUT1hMkBvUyDz9-40">
          <mxGeometry x="-0.1755" y="2" relative="1" as="geometry">
            <mxPoint as="offset" />
          </mxGeometry>
        </mxCell>
        <mxCell id="nZphPqPUT1hMkBvUyDz9-7" value="&amp;nbsp;&amp;nbsp; &lt;font style=&quot;color: rgb(153, 0, 0);&quot; face=&quot;Roboto Slab&quot;&gt;&lt;b&gt;main&lt;/b&gt;&lt;/font&gt;" style="rounded=1;whiteSpace=wrap;html=1;fillColor=#f8cecc;strokeColor=#b85450;" vertex="1" parent="1">
          <mxGeometry x="672" y="153" width="70" height="30" as="geometry" />
        </mxCell>
        <mxCell id="nZphPqPUT1hMkBvUyDz9-8" value="" style="shape=image;verticalLabelPosition=bottom;labelBackgroundColor=default;verticalAlign=top;aspect=fixed;imageAspect=0;image=https://www.svgrepo.com/show/327279/git-branch.svg;" vertex="1" parent="1">
          <mxGeometry x="672" y="157" width="25" height="25" as="geometry" />
        </mxCell>
        <mxCell id="nZphPqPUT1hMkBvUyDz9-12" value="&lt;div&gt;&lt;br&gt;&lt;/div&gt;&lt;div&gt;&lt;br&gt;&lt;/div&gt;" style="rounded=1;whiteSpace=wrap;html=1;fillColor=#d5e8d4;strokeColor=#82b366;" vertex="1" parent="1">
          <mxGeometry x="420.25" y="250" width="155" height="100" as="geometry" />
        </mxCell>
        <mxCell id="nZphPqPUT1hMkBvUyDz9-13" value="" style="rounded=1;whiteSpace=wrap;html=1;fillColor=#e1d5e7;strokeColor=#9673a6;" vertex="1" parent="1">
          <mxGeometry x="633" y="250" width="150" height="180" as="geometry" />
        </mxCell>
        <mxCell id="nZphPqPUT1hMkBvUyDz9-17" value="&lt;font face=&quot;Roboto Slab&quot; data-font-src=&quot;https://fonts.googleapis.com/css?family=Roboto+Slab&quot;&gt;&lt;b&gt;Pipelines&lt;/b&gt;&lt;/font&gt;" style="text;html=1;align=center;verticalAlign=middle;whiteSpace=wrap;rounded=0;fontSize=15;" vertex="1" parent="1">
          <mxGeometry x="176" y="215" width="60" height="30" as="geometry" />
        </mxCell>
        <mxCell id="nZphPqPUT1hMkBvUyDz9-19" value="" style="endArrow=classic;html=1;rounded=0;dashed=1;entryX=0.5;entryY=0;entryDx=0;entryDy=0;exitX=0.5;exitY=1;exitDx=0;exitDy=0;" edge="1" parent="1" source="nZphPqPUT1hMkBvUyDz9-15" target="nZphPqPUT1hMkBvUyDz9-12">
          <mxGeometry width="50" height="50" relative="1" as="geometry">
            <mxPoint x="497.40999999999997" y="185" as="sourcePoint" />
            <mxPoint x="497.60470085470047" y="252" as="targetPoint" />
          </mxGeometry>
        </mxCell>
        <mxCell id="nZphPqPUT1hMkBvUyDz9-23" value="Criação instância EC2" style="rounded=0;whiteSpace=wrap;html=1;strokeColor=none;" vertex="1" parent="1">
          <mxGeometry x="663" y="265" width="90" height="30" as="geometry" />
        </mxCell>
        <mxCell id="nZphPqPUT1hMkBvUyDz9-24" value="Cópia de arquivos do repositório" style="rounded=0;whiteSpace=wrap;html=1;strokeColor=none;" vertex="1" parent="1">
          <mxGeometry x="653" y="341.25" width="110" height="30" as="geometry" />
        </mxCell>
        <mxCell id="nZphPqPUT1hMkBvUyDz9-25" value="Configuração instância" style="rounded=0;whiteSpace=wrap;html=1;strokeColor=none;" vertex="1" parent="1">
          <mxGeometry x="662" y="301.25" width="90" height="30" as="geometry" />
        </mxCell>
        <mxCell id="nZphPqPUT1hMkBvUyDz9-26" value="Deploy da aplicação via docker compose" style="rounded=0;whiteSpace=wrap;html=1;strokeColor=none;" vertex="1" parent="1">
          <mxGeometry x="653" y="380" width="110" height="37.5" as="geometry" />
        </mxCell>
        <mxCell id="nZphPqPUT1hMkBvUyDz9-27" value="Testes unitários" style="rounded=0;whiteSpace=wrap;html=1;strokeColor=none;" vertex="1" parent="1">
          <mxGeometry x="452.75" y="265" width="90" height="30" as="geometry" />
        </mxCell>
        <mxCell id="nZphPqPUT1hMkBvUyDz9-28" value="Testes de integração" style="rounded=0;whiteSpace=wrap;html=1;strokeColor=none;" vertex="1" parent="1">
          <mxGeometry x="439.12" y="301.25" width="117.25" height="30" as="geometry" />
        </mxCell>
        <mxCell id="nZphPqPUT1hMkBvUyDz9-32" value="" style="group" vertex="1" connectable="0" parent="1">
          <mxGeometry x="450" y="155" width="95.5" height="30" as="geometry" />
        </mxCell>
        <mxCell id="nZphPqPUT1hMkBvUyDz9-30" value="&lt;div&gt;&lt;br&gt;&lt;/div&gt;&lt;div&gt;&lt;br&gt;&lt;/div&gt;" style="rounded=1;whiteSpace=wrap;html=1;fillColor=#d5e8d4;strokeColor=#82b366;" vertex="1" parent="nZphPqPUT1hMkBvUyDz9-32">
          <mxGeometry width="95.5" height="30" as="geometry" />
        </mxCell>
        <UserObject label="&lt;font data-mx-given-colors=&quot;{&amp;quot;color&amp;quot;:&amp;quot;rgb(0, 153, 77)&amp;quot;}&quot; style=&quot;color: light-dark(rgb(0, 153, 77), rgb(40, 171, 106));&quot; data-font-src=&quot;https://fonts.googleapis.com/css?family=Roboto+Slab&quot; face=&quot;Roboto Slab&quot;&gt;&lt;b&gt;CI pipeline&lt;/b&gt;&lt;/font&gt;" link="&lt;font face=&quot;Roboto Slab&quot; data-font-src=&quot;https://fonts.googleapis.com/css?family=Roboto+Slab&quot; style=&quot;color: light-dark(rgb(0, 153, 77), rgb(40, 171, 106));&quot; data-mx-given-colors=&quot;{&amp;quot;color&amp;quot;:&amp;quot;rgb(0, 153, 77)&amp;quot;}&quot;&gt;&lt;b&gt;CI pipeline&lt;/b&gt;&lt;/font&gt;" id="nZphPqPUT1hMkBvUyDz9-15">
          <mxCell style="text;whiteSpace=wrap;html=1;fontSize=13;" vertex="1" parent="nZphPqPUT1hMkBvUyDz9-32">
            <mxGeometry x="9.5" width="76" height="30" as="geometry" />
          </mxCell>
        </UserObject>
        <mxCell id="nZphPqPUT1hMkBvUyDz9-34" style="edgeStyle=orthogonalEdgeStyle;rounded=0;orthogonalLoop=1;jettySize=auto;html=1;exitX=1;exitY=0.5;exitDx=0;exitDy=0;entryX=0;entryY=0.5;entryDx=0;entryDy=0;" edge="1" parent="1" source="nZphPqPUT1hMkBvUyDz9-30" target="nZphPqPUT1hMkBvUyDz9-8">
          <mxGeometry relative="1" as="geometry">
            <mxPoint x="506.5" y="169" as="sourcePoint" />
          </mxGeometry>
        </mxCell>
        <mxCell id="nZphPqPUT1hMkBvUyDz9-35" value="Merge" style="edgeLabel;html=1;align=center;verticalAlign=middle;resizable=0;points=[];" vertex="1" connectable="0" parent="nZphPqPUT1hMkBvUyDz9-34">
          <mxGeometry x="-0.2076" y="-3" relative="1" as="geometry">
            <mxPoint x="6" y="-2" as="offset" />
          </mxGeometry>
        </mxCell>
      </root>
    </mxGraphModel>
  </diagram>
</mxfile>
